<svg width="24" height="24" viewBox="0 0 24 24" fill="none" xmlns="http://www.w3.org/2000/svg">
    <path d="M17.722 7.29376L9.24202 15.7738L5.70202 12.2338C5.51504 12.0468 5.26145 11.9417 4.99702 11.9417C4.73259 11.9417 4.479 12.0468 4.29202 12.2338C4.10504 12.4207 4 12.6743 4 12.9388C4 13.0697 4.02579 13.1993 4.07589 13.3203C4.126 13.4413 4.19944 13.5512 4.29202 13.6438L8.53202 17.8838C8.92202 18.2738 9.55202 18.2738 9.94202 17.8838L19.122 8.70376C19.2152 8.61021 19.2889 8.4991 19.3389 8.37688C19.3889 8.25465 19.4142 8.12373 19.4132 7.99168C19.4123 7.85963 19.3852 7.72907 19.3335 7.60756C19.2818 7.48605 19.2065 7.37599 19.112 7.28376C18.742 6.90376 18.112 6.90376 17.722 7.29376Z" fill="white"/>
</svg>