<svg width="24" height="24" viewBox="0 0 24 24" fill="none" xmlns="http://www.w3.org/2000/svg">
    <path d="M8.1226 15.0025L12.0026 11.1225L15.8826 15.0025C15.9752 15.095 16.0851 15.1685 16.2061 15.2186C16.327 15.2687 16.4567 15.2945 16.5876 15.2945C16.7185 15.2945 16.8482 15.2687 16.9691 15.2186C17.0901 15.1685 17.2 15.095 17.2926 15.0025C17.3852 14.9099 17.4586 14.8 17.5087 14.679C17.5588 14.558 17.5846 14.4284 17.5846 14.2975C17.5846 14.1665 17.5588 14.0369 17.5087 13.9159C17.4586 13.795 17.3852 13.685 17.2926 13.5925L12.7026 9.00247C12.6101 8.90976 12.5002 8.83622 12.3792 8.78603C12.2583 8.73585 12.1286 8.71002 11.9976 8.71002C11.8666 8.71002 11.7369 8.73585 11.616 8.78603C11.495 8.83622 11.3851 8.90976 11.2926 9.00247L6.7026 13.5925C6.6099 13.685 6.53635 13.7949 6.48617 13.9158C6.43599 14.0368 6.41016 14.1665 6.41016 14.2975C6.41016 14.4284 6.43599 14.5581 6.48617 14.6791C6.53635 14.8001 6.6099 14.91 6.7026 15.0025C7.0926 15.3825 7.7326 15.3925 8.1226 15.0025V15.0025Z" fill="white"/>
</svg>
