<svg width="8" height="12" viewBox="0 0 8 12" fill="none" xmlns="http://www.w3.org/2000/svg">
    <path d="M0.997106 2.12742L4.87711 6.00742L0.997106 9.88742C0.904524 9.98 0.831084 10.0899 0.780979 10.2109C0.730874 10.3318 0.705085 10.4615 0.705085 10.5924C0.705085 10.7234 0.730874 10.853 0.780979 10.974C0.831084 11.0949 0.904524 11.2048 0.997106 11.2974C1.08969 11.39 1.1996 11.4634 1.32056 11.5135C1.44153 11.5637 1.57118 11.5894 1.70211 11.5894C1.83304 11.5894 1.96269 11.5637 2.08365 11.5135C2.20461 11.4634 2.31452 11.39 2.40711 11.2974L6.99711 6.70742C7.08981 6.61491 7.16336 6.50502 7.21354 6.38405C7.26372 6.26307 7.28955 6.13339 7.28955 6.00242C7.28955 5.87145 7.26372 5.74177 7.21354 5.6208C7.16336 5.49982 7.08981 5.38994 6.99711 5.29742L2.40711 0.707422C2.31459 0.614718 2.2047 0.541171 2.08373 0.490989C1.96276 0.440808 1.83307 0.414978 1.70211 0.414978C1.57114 0.414978 1.44146 0.440808 1.32048 0.490989C1.19951 0.541171 1.08962 0.614718 0.997107 0.707422C0.617107 1.09742 0.607107 1.73742 0.997106 2.12742V2.12742Z" fill="white"/>
</svg>
