<svg width="8" height="12" viewBox="0 0 8 12" fill="none" xmlns="http://www.w3.org/2000/svg">
    <path d="M6.99753 2.12742L3.11753 6.00742L6.99753 9.88742C7.09011 9.98 7.16355 10.0899 7.21366 10.2109C7.26376 10.3318 7.28955 10.4615 7.28955 10.5924C7.28955 10.7234 7.26376 10.853 7.21366 10.974C7.16355 11.0949 7.09011 11.2048 6.99753 11.2974C6.90495 11.39 6.79504 11.4634 6.67407 11.5135C6.55311 11.5637 6.42346 11.5894 6.29253 11.5894C6.1616 11.5894 6.03195 11.5637 5.91099 11.5135C5.79002 11.4634 5.68011 11.39 5.58753 11.2974L0.99753 6.70742C0.904826 6.61491 0.831279 6.50502 0.781097 6.38405C0.730916 6.26307 0.705086 6.13339 0.705086 6.00242C0.705086 5.87145 0.730916 5.74177 0.781097 5.6208C0.831279 5.49982 0.904826 5.38994 0.99753 5.29742L5.58753 0.707422C5.68004 0.614719 5.78993 0.541171 5.91091 0.49099C6.03188 0.440808 6.16156 0.414978 6.29253 0.414978C6.4235 0.414978 6.55318 0.440808 6.67415 0.49099C6.79513 0.541171 6.90502 0.614719 6.99753 0.707422C7.37753 1.09742 7.38753 1.73742 6.99753 2.12742Z" fill="white"/>
</svg>
