<svg width="24" height="24" viewBox="0 0 24 24" fill="none" xmlns="http://www.w3.org/2000/svg">
    <path d="M8.1226 9.00204L12.0026 12.882L15.8826 9.00204C15.9752 8.90946 16.0851 8.83602 16.2061 8.78592C16.327 8.73581 16.4567 8.71002 16.5876 8.71002C16.7185 8.71002 16.8482 8.73581 16.9691 8.78592C17.0901 8.83602 17.2 8.90946 17.2926 9.00204C17.3852 9.09462 17.4586 9.20454 17.5087 9.3255C17.5588 9.44646 17.5846 9.57611 17.5846 9.70704C17.5846 9.83797 17.5588 9.96762 17.5087 10.0886C17.4586 10.2095 17.3852 10.3195 17.2926 10.412L12.7026 15.002C12.6101 15.0947 12.5002 15.1683 12.3792 15.2185C12.2583 15.2687 12.1286 15.2945 11.9976 15.2945C11.8666 15.2945 11.7369 15.2687 11.616 15.2185C11.495 15.1683 11.3851 15.0947 11.2926 15.002L6.7026 10.412C6.6099 10.3195 6.53635 10.2096 6.48617 10.0887C6.43599 9.96769 6.41016 9.83801 6.41016 9.70704C6.41016 9.57607 6.43599 9.44639 6.48617 9.32542C6.53635 9.20445 6.6099 9.09456 6.7026 9.00204C7.0926 8.62204 7.7326 8.61204 8.1226 9.00204Z" fill="white"/>
</svg>
