<svg width="24" height="24" viewBox="0 0 24 24" fill="none" xmlns="http://www.w3.org/2000/svg">
    <path d="M16.9497 16.9498C16.5592 17.3403 15.9261 17.3403 15.5355 16.9498L12 13.4142L8.46447 16.9498C8.07394 17.3403 7.44078 17.3403 7.05025 16.9498C6.65973 16.5592 6.65973 15.9261 7.05025 15.5356L10.5858 12L7.05025 8.46449C6.65973 8.07396 6.65973 7.4408 7.05025 7.05027C7.44078 6.65975 8.07394 6.65975 8.46447 7.05027L12 10.5858L15.5355 7.05027C15.9261 6.65975 16.5592 6.65975 16.9497 7.05027C17.3403 7.4408 17.3403 8.07396 16.9497 8.46449L13.4142 12L16.9497 15.5356C17.3403 15.9261 17.3403 16.5592 16.9497 16.9498Z" fill="white"/>
</svg>
